<?xml version="1.0" encoding="UTF-8" standalone="no"?>
<svg
   xmlns:dc="http://purl.org/dc/elements/1.1/"
   xmlns:cc="http://creativecommons.org/ns#"
   xmlns:rdf="http://www.w3.org/1999/02/22-rdf-syntax-ns#"
   xmlns:svg="http://www.w3.org/2000/svg"
   xmlns="http://www.w3.org/2000/svg"
   xmlns:sodipodi="http://sodipodi.sourceforge.net/DTD/sodipodi-0.dtd"
   xmlns:inkscape="http://www.inkscape.org/namespaces/inkscape"
   width="20.965769"
   height="27.931484"
   viewBox="0 0 20.965769 27.931484"
   version="1.1"
   id="svg6"
   sodipodi:docname="location.svg"
   style="fill:none"
   inkscape:version="0.92.5 (2060ec1f9f, 2020-04-08)">
  <metadata
     id="metadata12">
    <rdf:RDF>
      <cc:Work
         rdf:about="">
        <dc:format>image/svg+xml</dc:format>
        <dc:type
           rdf:resource="http://purl.org/dc/dcmitype/StillImage" />
      </cc:Work>
    </rdf:RDF>
  </metadata>
  <defs
     id="defs10" />
  <sodipodi:namedview
     pagecolor="#ffffff"
     bordercolor="#666666"
     borderopacity="1"
     objecttolerance="10"
     gridtolerance="10"
     guidetolerance="10"
     inkscape:pageopacity="0"
     inkscape:pageshadow="2"
     inkscape:window-width="3840"
     inkscape:window-height="2063"
     id="namedview8"
     showgrid="false"
     inkscape:zoom="33.714286"
     inkscape:cx="4.779814"
     inkscape:cy="12.791197"
     inkscape:window-x="0"
     inkscape:window-y="0"
     inkscape:window-maximized="1"
     inkscape:current-layer="svg6" />
  <path
     d="m 10.481977,6.5668326 c -0.7629418,0 -1.5087878,0.2240732 -2.1431728,0.6438739 -0.634385,0.4198008 -1.128849,1.016478 -1.420844,1.7145388 -0.291994,0.6981397 -0.368377,1.4662807 -0.219465,2.2074067 0.148814,0.741127 0.516203,1.421815 1.055727,1.956191 0.539523,0.534278 1.226872,0.898186 1.975189,1.045583 0.7483168,0.147397 1.5240048,0.07178 2.2288438,-0.217398 0.704938,-0.289175 1.307405,-0.778888 1.731317,-1.407125 0.423911,-0.628336 0.650095,-1.366997 0.650095,-2.122617 C 14.338581,9.3744367 13.931764,8.4033314 13.208546,7.6870999 12.485328,6.9708683 11.504798,6.5679862 10.481977,6.5668326 Z m 0,5.7307004 c -0.381421,0 -0.7543448,-0.112002 -1.0715368,-0.321907 -0.317193,-0.209906 -0.564425,-0.508249 -0.710472,-0.85727 -0.145947,-0.34902 -0.184188,-0.73314 -0.109683,-1.103654 0.07441,-0.3706124 0.258102,-0.7109567 0.527863,-0.9781448 0.269762,-0.2671288 0.613437,-0.4490632 0.9875458,-0.5227716 0.374208,-0.073708 0.762052,-0.035878 1.114422,0.1086992 0.352469,0.1445872 0.653752,0.3894241 0.865708,0.7035426 0.211955,0.3141185 0.324998,0.6834496 0.324998,1.0612586 -5.93e-4,0.506474 -0.203952,0.992047 -0.565511,1.350138 -0.361659,0.358091 -0.851874,0.559517 -1.363334,0.560109 z"
     id="path2"
     inkscape:connector-curvature="0"
     style="fill:#000000;stroke-width:0.98703521" />
  <path
     d="M 17.895284,3.0399899 C 16.062486,1.2252802 13.615856,0.14727011 11.027627,0.0140113 8.4394952,-0.11924356 5.8931632,0.70170009 3.8801972,2.3184047 1.8672322,3.9351093 0.53031124,6.2329659 0.12745724,8.7684819 c -0.402864,2.5355251 0.156906,5.1289261 1.57126696,7.2797401 l 7.287805,11.080219 c 0.162153,0.246582 0.38399,0.449093 0.645155,0.589392 0.261263,0.140199 0.5536538,0.213651 0.8507868,0.213651 0.297133,0 0.589523,-0.07345 0.850688,-0.213651 0.261264,-0.140299 0.483002,-0.34281 0.645155,-0.589392 l 7.288111,-11.080219 c 1.312346,-1.995135 1.892284,-4.376461 1.64268,-6.7447725 C 20.659501,6.9350986 19.595475,4.7237379 17.895284,3.0399899 Z M 17.650325,15.005499 10.482471,25.902926 3.3146072,15.005499 C 1.1205552,11.669789 1.5911262,7.2058163 4.4335152,4.3907092 5.2278492,3.6039933 6.1709282,2.9799366 7.2087692,2.5541612 8.2467102,2.1283955 9.3590572,1.909252 10.482471,1.909252 c 1.123414,0 2.235761,0.2191435 3.273701,0.6449092 1.037841,0.4257754 1.98092,1.0498321 2.775284,1.836548 2.842379,2.8151071 3.31293,7.2790798 1.118869,10.6147898 z"
     id="path4"
     inkscape:connector-curvature="0"
     style="fill:#000000;stroke-width:0.98703521" />
</svg>
