<?xml version="1.0" encoding="UTF-8" standalone="no"?>
<svg
   xmlns:dc="http://purl.org/dc/elements/1.1/"
   xmlns:cc="http://creativecommons.org/ns#"
   xmlns:rdf="http://www.w3.org/1999/02/22-rdf-syntax-ns#"
   xmlns:svg="http://www.w3.org/2000/svg"
   xmlns="http://www.w3.org/2000/svg"
   xmlns:sodipodi="http://sodipodi.sourceforge.net/DTD/sodipodi-0.dtd"
   xmlns:inkscape="http://www.inkscape.org/namespaces/inkscape"
   width="19.9729"
   height="16"
   viewBox="0 0 19.9729 16"
   version="1.1"
   id="svg6"
   sodipodi:docname="login.svg"
   style="fill:none"
   inkscape:version="0.92.5 (2060ec1f9f, 2020-04-08)">
  <metadata
     id="metadata12">
    <rdf:RDF>
      <cc:Work
         rdf:about="">
        <dc:format>image/svg+xml</dc:format>
        <dc:type
           rdf:resource="http://purl.org/dc/dcmitype/StillImage" />
      </cc:Work>
    </rdf:RDF>
  </metadata>
  <defs
     id="defs10" />
  <sodipodi:namedview
     pagecolor="#ffffff"
     bordercolor="#666666"
     borderopacity="1"
     objecttolerance="10"
     gridtolerance="10"
     guidetolerance="10"
     inkscape:pageopacity="0"
     inkscape:pageshadow="2"
     inkscape:window-width="648"
     inkscape:window-height="480"
     id="namedview8"
     showgrid="false"
     inkscape:zoom="14.75"
     inkscape:cx="9.987"
     inkscape:cy="8"
     inkscape:window-x="0"
     inkscape:window-y="0"
     inkscape:window-maximized="0"
     inkscape:current-layer="svg6" />
  <path
     d="m 13.9729,16 h 4 c 0.5304,0 1.0391,-0.2107 1.4142,-0.5858 C 19.7622,15.0391 19.9729,14.5304 19.9729,14 V 2 c 0,-0.53043 -0.2107,-1.039141 -0.5858,-1.414214 C 19.012,0.210714 18.5033,0 17.9729,0 h -4 v 2 h 4 v 12 h -4 z"
     id="path2"
     inkscape:connector-curvature="0"
     style="fill:#000000" />
  <path
     d="m 7.645,14.385 -1.42,-1.408 3.92,-3.95302 H 1 C 0.73478,9.02398 0.48043,8.91863 0.292894,8.73109 0.105357,8.54355 0,8.2892 0,8.02398 0,7.75877 0.105357,7.50441 0.292894,7.31688 0.48043,7.12934 0.73478,7.02398 1,7.02398 h 9.163 l -3.98,-3.947 1.408,-1.42 6.391,6.337 z"
     id="path4"
     inkscape:connector-curvature="0"
     style="fill:#000000" />
</svg>
