<?xml version="1.0" encoding="UTF-8" standalone="no"?>
<svg
   xmlns:dc="http://purl.org/dc/elements/1.1/"
   xmlns:cc="http://creativecommons.org/ns#"
   xmlns:rdf="http://www.w3.org/1999/02/22-rdf-syntax-ns#"
   xmlns:svg="http://www.w3.org/2000/svg"
   xmlns="http://www.w3.org/2000/svg"
   xmlns:sodipodi="http://sodipodi.sourceforge.net/DTD/sodipodi-0.dtd"
   xmlns:inkscape="http://www.inkscape.org/namespaces/inkscape"
   width="157.78101"
   height="42.075176"
   viewBox="0 0 157.78101 42.075176"
   version="1.1"
   id="svg32"
   sodipodi:docname="logo.svg"
   style="fill:none"
   inkscape:version="0.92.5 (2060ec1f9f, 2020-04-08)">
  <metadata
     id="metadata38">
    <rdf:RDF>
      <cc:Work
         rdf:about="">
        <dc:format>image/svg+xml</dc:format>
        <dc:type
           rdf:resource="http://purl.org/dc/dcmitype/StillImage" />
      </cc:Work>
    </rdf:RDF>
  </metadata>
  <defs
     id="defs36" />
  <sodipodi:namedview
     pagecolor="#ffffff"
     bordercolor="#666666"
     borderopacity="1"
     objecttolerance="10"
     gridtolerance="10"
     guidetolerance="10"
     inkscape:pageopacity="0"
     inkscape:pageshadow="2"
     inkscape:window-width="3840"
     inkscape:window-height="2063"
     id="namedview34"
     showgrid="false"
     inkscape:zoom="2.4944444"
     inkscape:cx="90"
     inkscape:cy="21.0377"
     inkscape:window-x="0"
     inkscape:window-y="0"
     inkscape:window-maximized="1"
     inkscape:current-layer="svg32" />
  <path
     d="M 20.4909,0.264286 H 0.259766 v 20.51009 H 20.4909 Z"
     id="path2"
     inkscape:connector-curvature="0"
     style="fill:#6b4c9f" />
  <path
     d="m 20.2311,0.527826 v 19.98305 H 0.519832 V 0.527826 Z M 20.7509,0 H 0 V 21.037876 H 20.7517 V 0 Z"
     id="path4"
     inkscape:connector-curvature="0"
     style="fill:#ffffff" />
  <path
     d="M 41.2409,0.264286 H 21.0115 v 20.51009 h 20.2294 z"
     id="path6"
     inkscape:connector-curvature="0"
     style="fill:#f58220" />
  <path
     d="m 40.9812,0.527826 v 19.98305 H 21.2716 V 0.527826 Z M 41.5011,0 H 20.751 v 21.037876 h 20.7501 z"
     id="path8"
     inkscape:connector-curvature="0"
     style="fill:#ffffff" />
  <path
     d="M 20.4909,21.302376 H 0.259766 v 20.5101 H 20.4909 Z"
     id="path10"
     inkscape:connector-curvature="0"
     style="fill:#9ccb3b" />
  <path
     d="m 20.2311,21.565076 v 19.9831 H 0.519832 v -19.9831 z m 0.5198,-0.527 H 0 v 21.0371 h 20.7517 v -21.0371 z"
     id="path12"
     inkscape:connector-curvature="0"
     style="fill:#ffffff" />
  <path
     d="M 41.2409,21.302376 H 21.0115 v 20.5101 h 20.2294 z"
     id="path14"
     inkscape:connector-curvature="0"
     style="fill:#e31e36" />
  <path
     d="m 40.9812,21.565076 v 19.9831 H 21.2716 v -19.9831 z m 0.5199,-0.527 H 20.751 v 21.0371 h 20.7501 z"
     id="path16"
     inkscape:connector-curvature="0"
     style="fill:#ffffff" />
  <path
     d="m 6.5376,26.573276 h 6.6248 v 1.1552 H 7.69281 v 3.6648 h 5.42239 v 1.1472 H 7.69281 v 4.5969 h 5.42239 v 1.1552 H 6.5376 Z"
     id="path18"
     inkscape:connector-curvature="0"
     style="fill:#ffffff" />
  <path
     d="m 24.5479,38.292576 1.6424,-11.7193 h 0.1886 l 4.6994,9.6161 4.6523,-9.6161 h 0.1886 l 1.6582,11.7193 h -1.1395 l -1.1317,-8.3812 -4.0864,8.3812 H 30.929 l -4.1415,-8.4449 -1.1237,8.4449 z"
     id="path20"
     inkscape:connector-curvature="0"
     style="fill:#ffffff" />
  <path
     d="m 5.64941,5.052006 h 1.25737 l 3.82712,9.05837 3.8979,-9.05837 h 1.2573 l -5.0295,11.71937 h -0.2514 z"
     id="path22"
     inkscape:connector-curvature="0"
     style="fill:#ffffff" />
  <path
     d="m 27.4143,14.588376 0.9823,-0.5975 c 0.6916,1.2907 1.4905,1.936 2.3969,1.936 0.3877,0 0.7518,-0.0903 1.0923,-0.2709 0.3406,-0.1859 0.5999,-0.4329 0.778,-0.7409 0.1782,-0.3081 0.2672,-0.6347 0.2672,-0.98 0,-0.393 -0.131,-0.7781 -0.3929,-1.1552 -0.3615,-0.5205 -1.0216,-1.1472 -1.9804,-1.8802 -0.964,-0.7382 -1.5638,-1.272 -1.7996,-1.6013 -0.4086,-0.55239 -0.6129,-1.14991 -0.6129,-1.79258 0,-0.50988 0.1205,-0.97462 0.3614,-1.39421 0.241,-0.4196 0.579,-0.7489 1.0138,-0.9879 0.4401,-0.24432 0.9168,-0.36648 1.4303,-0.36648 0.5448,0 1.053,0.13809 1.5245,0.41428 0.4768,0.27087 0.9797,0.77279 1.5089,1.50575 l -0.9431,0.72499 c -0.4348,-0.58424 -0.8068,-0.96931 -1.1159,-1.15521 -0.3038,-0.18589 -0.6365,-0.27884 -0.998,-0.27884 -0.4663,0 -0.8487,0.14341 -1.1474,0.43022 -0.2934,0.28681 -0.44,0.64001 -0.44,1.0596 0,0.25494 0.0523,0.50192 0.1571,0.74093 0.1048,0.239 0.296,0.49926 0.5737,0.78076 0.1519,0.14869 0.6496,0.53909 1.4931,1.17109 1.0007,0.7489 1.687,1.4155 2.059,1.9997 0.3719,0.5843 0.5579,1.1712 0.5579,1.7607 0,0.8499 -0.3196,1.5881 -0.9587,2.2149 -0.6339,0.6267 -1.4067,0.9401 -2.3183,0.9401 -0.702,0 -1.3386,-0.1886 -1.9096,-0.5657 -0.5711,-0.3824 -1.0976,-1.0198 -1.5796,-1.9121 z"
     id="path24"
     inkscape:connector-curvature="0"
     style="fill:#ffffff" />
  <path
     d="m 49.9617,0.601436 h 23.0689 v 3.99546 H 53.9851 v 14.88898 h 18.8818 v 3.9963 H 53.9851 v 13.9342 h 18.8818 v 3.9946 H 49.9617 Z"
     id="path26"
     inkscape:connector-curvature="0"
     style="fill:#9ccb3b" />
  <path
     d="M 83.0083,41.410976 V 0.601436 h 8.3466 c 6.0197,0 10.3891,0.49066 13.1071,1.46949 3.905,1.38854 6.956,3.79226 9.155,7.21285 2.197,3.423 3.296,7.5002 3.296,12.2358 0,4.0872 -0.869,7.6853 -2.612,10.7911 -1.742,3.1083 -4.006,5.4006 -6.786,6.8808 -2.784,1.4802 -6.682,2.2195 -11.7007,2.2195 z m 3.858,-3.8559 h 4.6524 c 5.5642,0 9.4223,-0.351 11.5753,-1.0531 3.029,-0.9979 5.411,-2.7945 7.143,-5.3915 1.734,-2.597 2.599,-5.7697 2.599,-9.5215 0,-3.9368 -0.938,-7.2987 -2.818,-10.0898 -1.88,-2.79117 -4.499,-4.70258 -7.855,-5.73841 -2.5168,-0.77481 -6.6673,-1.16304 -12.4515,-1.16304 h -2.8452 z"
     id="path28"
     inkscape:connector-curvature="0"
     style="fill:#9ccb3b" />
  <path
     d="m 139.008,0.601436 18.773,40.80954 h -4.344 l -6.331,-13.427 h -17.342 l -6.272,13.427 h -4.488 l 19.019,-40.80954 z m -0.507,8.67074 -6.898,14.7717 h 13.763 z"
     id="path30"
     inkscape:connector-curvature="0"
     style="fill:#9ccb3b" />
</svg>
