<?xml version="1.0" encoding="UTF-8" standalone="no"?>
<svg
   xmlns:dc="http://purl.org/dc/elements/1.1/"
   xmlns:cc="http://creativecommons.org/ns#"
   xmlns:rdf="http://www.w3.org/1999/02/22-rdf-syntax-ns#"
   xmlns:svg="http://www.w3.org/2000/svg"
   xmlns="http://www.w3.org/2000/svg"
   xmlns:sodipodi="http://sodipodi.sourceforge.net/DTD/sodipodi-0.dtd"
   xmlns:inkscape="http://www.inkscape.org/namespaces/inkscape"
   width="20.637438"
   height="16"
   viewBox="0 0 20.637438 16"
   version="1.1"
   id="svg6"
   sodipodi:docname="logOut.svg"
   style="fill:none"
   inkscape:version="0.92.5 (2060ec1f9f, 2020-04-08)">
  <metadata
     id="metadata12">
    <rdf:RDF>
      <cc:Work
         rdf:about="">
        <dc:format>image/svg+xml</dc:format>
        <dc:type
           rdf:resource="http://purl.org/dc/dcmitype/StillImage" />
      </cc:Work>
    </rdf:RDF>
  </metadata>
  <defs
     id="defs10" />
  <sodipodi:namedview
     pagecolor="#ffffff"
     bordercolor="#666666"
     borderopacity="1"
     objecttolerance="10"
     gridtolerance="10"
     guidetolerance="10"
     inkscape:pageopacity="0"
     inkscape:pageshadow="2"
     inkscape:window-width="648"
     inkscape:window-height="480"
     id="namedview8"
     showgrid="false"
     inkscape:zoom="14.75"
     inkscape:cx="10.277538"
     inkscape:cy="8"
     inkscape:window-x="0"
     inkscape:window-y="0"
     inkscape:window-maximized="0"
     inkscape:current-layer="svg6" />
  <path
     d="m 14.137438,16 h 4.3333 c 0.5746,0 1.1257,-0.2107 1.5321,-0.5858 0.4063,-0.3751 0.6346,-0.8838 0.6346,-1.4142 V 2 c 0,-0.53043 -0.2283,-1.039141 -0.6346,-1.414214 C 19.596438,0.210714 19.045338,0 18.470738,0 h -4.3333 v 2 h 4.3333 v 12 h -4.3333 z"
     id="path2"
     inkscape:connector-curvature="0"
     style="fill:#000000" />
  <path
     d="m 6.865088,1.65701 1.53833,1.408 -4.24667,3.953 h 9.90709 c 0.2873,0 0.5629,0.10536 0.766,0.29289 0.2032,0.18754 0.3173,0.44189 0.3173,0.70711 0,0.26522 -0.1141,0.51957 -0.3173,0.70711 -0.2031,0.18753 -0.4787,0.29289 -0.766,0.29289 H 4.137248 L 8.448918,12.965 6.923588,14.385 0,8.04801 Z"
     id="path4"
     inkscape:connector-curvature="0"
     style="fill:#000000" />
</svg>
