<?xml version="1.0" encoding="UTF-8" standalone="no"?>
<svg
   xmlns:dc="http://purl.org/dc/elements/1.1/"
   xmlns:cc="http://creativecommons.org/ns#"
   xmlns:rdf="http://www.w3.org/1999/02/22-rdf-syntax-ns#"
   xmlns:svg="http://www.w3.org/2000/svg"
   xmlns="http://www.w3.org/2000/svg"
   xmlns:sodipodi="http://sodipodi.sourceforge.net/DTD/sodipodi-0.dtd"
   xmlns:inkscape="http://www.inkscape.org/namespaces/inkscape"
   width="21"
   height="21"
   viewBox="0 0 21 21"
   version="1.1"
   id="svg4"
   sodipodi:docname="search.svg"
   style="fill:none"
   inkscape:version="0.92.5 (2060ec1f9f, 2020-04-08)">
  <metadata
     id="metadata10">
    <rdf:RDF>
      <cc:Work
         rdf:about="">
        <dc:format>image/svg+xml</dc:format>
        <dc:type
           rdf:resource="http://purl.org/dc/dcmitype/StillImage" />
      </cc:Work>
    </rdf:RDF>
  </metadata>
  <defs
     id="defs8" />
  <sodipodi:namedview
     pagecolor="#ffffff"
     bordercolor="#666666"
     borderopacity="1"
     objecttolerance="10"
     gridtolerance="10"
     guidetolerance="10"
     inkscape:pageopacity="0"
     inkscape:pageshadow="2"
     inkscape:window-width="2530"
     inkscape:window-height="1058"
     id="namedview6"
     showgrid="false"
     inkscape:zoom="11.238095"
     inkscape:cx="10.5"
     inkscape:cy="11.211865"
     inkscape:window-x="0"
     inkscape:window-y="0"
     inkscape:window-maximized="0"
     inkscape:current-layer="svg4" />
  <path
     d="m 20.9369,19.4905 -6.8171,-6.8171 c 1.0579,-1.3676 1.6301,-3.03969 1.6301,-4.79843 0,-2.10525 -0.8216,-4.07924 -2.3073,-5.56761 C 11.9568,0.818996 9.97758,0 7.87497,0 5.77235,0 3.79311,0.821621 2.30736,2.30736 0.818996,3.79311 0,5.76972 0,7.87497 c 0,2.10261 0.821621,4.08183 2.30736,5.56763 1.48575,1.4883 3.46236,2.3073 5.56761,2.3073 1.75874,0 3.42823,-0.5722 4.79583,-1.6275 l 6.8171,6.8145 c 0.02,0.02 0.0437,0.0359 0.0699,0.0467 0.0261,0.0108 0.0541,0.0164 0.0824,0.0164 0.0282,0 0.0562,-0.0056 0.0824,-0.0164 0.0261,-0.0108 0.0498,-0.0267 0.0698,-0.0467 l 1.1445,-1.1419 c 0.02,-0.02 0.0359,-0.0437 0.0467,-0.0698 C 20.9944,19.6991 21,19.6711 21,19.6428 21,19.6145 20.9944,19.5865 20.9836,19.5604 20.9728,19.5343 20.9569,19.5105 20.9369,19.4905 Z m -8.904,-7.4576 c -1.1129,1.1104 -2.58819,1.722 -4.15793,1.722 -1.56975,0 -3.04499,-0.6116 -4.15799,-1.722 C 2.60661,10.92 1.99499,9.44471 1.99499,7.87497 c 0,-1.56975 0.61162,-3.04762 1.72199,-4.15799 1.113,-1.11037 2.58824,-1.72199 4.15799,-1.72199 1.56974,0 3.04763,0.609 4.15793,1.72199 1.1104,1.113 1.722,2.58824 1.722,4.15799 0,1.56974 -0.6116,3.04763 -1.722,4.15793 z"
     id="path2"
     inkscape:connector-curvature="0"
     style="fill:#000000" />
</svg>
