<?xml version="1.0" encoding="UTF-8" standalone="no"?>
<svg
   xmlns:dc="http://purl.org/dc/elements/1.1/"
   xmlns:cc="http://creativecommons.org/ns#"
   xmlns:rdf="http://www.w3.org/1999/02/22-rdf-syntax-ns#"
   xmlns:svg="http://www.w3.org/2000/svg"
   xmlns="http://www.w3.org/2000/svg"
   xmlns:sodipodi="http://sodipodi.sourceforge.net/DTD/sodipodi-0.dtd"
   xmlns:inkscape="http://www.inkscape.org/namespaces/inkscape"
   width="23"
   height="24.6814"
   viewBox="0 0 23 24.6814"
   version="1.1"
   id="svg13"
   sodipodi:docname="user.svg"
   style="fill:none"
   inkscape:version="0.92.5 (2060ec1f9f, 2020-04-08)">
  <metadata
     id="metadata17">
    <rdf:RDF>
      <cc:Work
         rdf:about="">
        <dc:format>image/svg+xml</dc:format>
        <dc:type
           rdf:resource="http://purl.org/dc/dcmitype/StillImage" />
      </cc:Work>
    </rdf:RDF>
  </metadata>
  <sodipodi:namedview
     pagecolor="#ffffff"
     bordercolor="#666666"
     borderopacity="1"
     objecttolerance="10"
     gridtolerance="10"
     guidetolerance="10"
     inkscape:pageopacity="0"
     inkscape:pageshadow="2"
     inkscape:window-width="649"
     inkscape:window-height="480"
     id="namedview15"
     showgrid="false"
     inkscape:zoom="9.44"
     inkscape:cx="11.5"
     inkscape:cy="12.1814"
     inkscape:window-x="0"
     inkscape:window-y="0"
     inkscape:window-maximized="0"
     inkscape:current-layer="svg13" />
  <g
     clip-path="url(#clip0)"
     id="g6">
    <path
       d="M 22.099,24.6814 H 0.900968 C 0.403483,24.6814 0,24.2779 0,23.7805 0,17.41 4.084,13.9021 11.5,13.9021 c 7.416,0 11.5,3.5084 11.5,9.8784 0,0.4974 -0.4035,0.9009 -0.901,0.9009 z M 1.83423,22.88 H 21.1658 C 20.811,18.1167 17.5638,15.7036 11.5,15.7036 c -6.06382,0 -9.31145,2.4131 -9.66577,7.1764 z"
       id="path2"
       inkscape:connector-curvature="0"
       style="fill:#000000" />
    <path
       d="M 11.5,12.5808 C 8.20515,12.5808 5.5249,9.67155 5.5249,6.09515 5.5249,2.62047 8.09331,0 11.5,0 c 3.4067,0 5.9751,2.62047 5.9751,6.09515 0,3.5764 -2.6802,6.48565 -5.9751,6.48565 z m 0,-10.77935 c -2.41847,0 -4.17365,1.8058 -4.17365,4.2937 0,2.58288 1.87232,4.68415 4.17365,4.68415 2.3014,0 4.1737,-2.10127 4.1737,-4.68415 0,-2.44789 -1.7942,-4.2937 -4.1737,-4.2937 z"
       id="path4"
       inkscape:connector-curvature="0"
       style="fill:#000000" />
  </g>
  <defs
     id="defs11">
    <clipPath
       id="clip0">
      <rect
         width="23"
         height="24.6814"
         id="rect8"
         x="0"
         y="0"
         style="fill:#ffffff" />
    </clipPath>
  </defs>
</svg>
